<?xml version="1.0" encoding="UTF-8"?>
<svg width="521px" height="521px" viewBox="0 0 521 521" version="1.1" xmlns="http://www.w3.org/2000/svg" xmlns:xlink="http://www.w3.org/1999/xlink">
    <title>Profile Picture</title>
    <g id="Profile-Picture" stroke="none" stroke-width="1" fill="none" fill-rule="evenodd">
        <g id="Group-9" transform="translate(4.000000, 4.000000)">
            <path d="M256.021348,0 C397.39582,0 512,114.629797 512,256.012809 C512,397.40436 397.39582,512.025618 256.021348,512.025618 C114.638336,512.025618 0,397.40436 0,256.012809 C0,114.629797 114.638336,0 256.021348,0" id="Fill-1" stroke="#F9B599" stroke-width="6" fill="#ED7F52"></path>
            <path d="M108.086232,403.567931 C114.798019,410.518815 122.867533,414.019874 132.294775,414.019874 C142.217288,414.019874 150.568595,410.655441 157.254764,403.960733 C163.97509,397.248947 167.322444,388.923258 167.322444,378.992205 C167.322444,369.044073 163.97509,360.718384 157.254764,354.023676 C150.568595,347.320429 142.217288,343.955997 132.294775,343.955997 C122.867533,343.955997 114.798019,347.439977 108.086232,354.39086 C101.382985,361.341744 98.0441702,369.539345 98.0441702,378.992205 C98.0441702,388.402368 101.382985,396.617048 108.086232,403.567931 M175.912847,286.21414 C169.2096,292.925926 165.828089,301.243076 165.828089,311.182668 C165.828089,321.096643 169.2096,329.302784 175.912847,335.758395 C182.624633,342.222545 190.933244,345.45889 200.847219,345.45889 C210.291539,345.45889 218.386671,342.085919 225.089918,335.391211 C231.793165,328.679424 235.140519,320.601371 235.140519,311.182668 C235.140519,301.243076 231.904175,292.925926 225.457102,286.21414 C218.992952,279.493814 210.803889,276.14646 200.847219,276.14646 C190.933244,276.14646 182.624633,279.493814 175.912847,286.21414 M177.381584,155.035434 C170.669798,161.738681 167.322444,169.816735 167.322444,179.261055 C167.322444,189.209186 170.558789,197.526336 177.0144,204.229584 C183.47855,210.949909 191.667613,214.297263 201.615744,214.297263 C211.555336,214.297263 219.863947,210.949909 226.592812,204.229584 C233.296059,197.526336 236.643413,189.209186 236.643413,179.261055 C236.643413,169.321463 233.296059,161.1324 226.592812,154.676789 C219.863947,148.212639 211.555336,144.967755 201.615744,144.967755 C192.145806,144.967755 184.084831,148.332187 177.381584,155.035434 M265.685125,179.995424 C272.653086,186.963385 280.82507,190.421748 290.286469,190.421748 C299.713711,190.421748 307.93693,186.963385 314.870735,179.995424 C321.847236,173.061619 325.314138,164.846939 325.314138,155.411158 C325.314138,145.958298 321.847236,137.777775 314.870735,130.826892 C307.93693,123.85893 299.713711,120.400567 290.286469,120.400567 C280.82507,120.400567 272.653086,123.85893 265.685125,130.826892 C258.742781,137.777775 255.2588,145.958298 255.2588,155.411158 C255.2588,164.846939 258.742781,173.061619 265.685125,179.995424 M307.42458,285.462693 C300.465158,292.157401 297.006795,300.243993 297.006795,309.688314 C297.006795,319.610827 300.345609,327.945056 307.074474,334.656842 C313.752104,341.35155 322.077793,344.707443 332.025924,344.707443 C341.974056,344.707443 350.274127,341.35155 357.002992,334.656842 C363.706239,327.945056 367.053593,319.610827 367.053593,309.688314 C367.053593,300.243993 363.59523,292.157401 356.61019,285.462693 C349.659307,278.759446 341.461705,275.386474 332.025924,275.386474 C322.581604,275.386474 314.375463,278.759446 307.42458,285.462693 M330.164386,196.76635 C323.469678,203.478137 320.122324,211.564729 320.122324,221.00051 C320.122324,230.940102 323.469678,239.248713 330.164386,245.9605 C336.89325,252.672286 345.2104,256.01964 355.141453,256.01964 C365.063967,256.01964 373.25303,252.672286 379.708641,245.9605 C386.155713,239.248713 389.400597,230.940102 389.400597,221.00051 C389.400597,211.564729 386.070321,203.478137 379.358535,196.76635 C372.638209,190.063103 364.585774,186.70721 355.141453,186.70721 C345.2104,186.70721 336.89325,190.063103 330.164386,196.76635 M354.381467,108.087086 C347.430584,114.807412 343.955143,122.876926 343.955143,132.321246 C343.955143,142.252299 347.302497,150.577988 354.014283,157.272696 C360.700452,163.984483 369.051759,167.340376 378.957194,167.340376 C388.930943,167.340376 397.222475,163.984483 403.934262,157.272696 C410.646048,150.577988 414.001941,142.252299 414.001941,132.321246 C414.001941,122.876926 410.5265,114.807412 403.575617,108.087086 C396.607655,101.3753 388.418593,98.0364849 378.957194,98.0364849 C369.529952,98.0364849 361.323811,101.3753 354.381467,108.087086" id="Fill-5" fill="#FEFEFE"></path>
            <path d="M267.199119,208.967968 C286.779433,208.967968 302.670825,224.850821 302.670825,244.439674 C302.670825,264.011448 286.779433,279.894301 267.199119,279.894301 C247.635885,279.894301 231.76157,264.011448 231.76157,244.439674 C231.76157,224.850821 247.635885,208.967968 267.199119,208.967968" id="Fill-7" fill="#231F20"></path>
        </g>
    </g>
</svg>